<?xml version="1.0" encoding="UTF-8"?>
<svg id="_레이어_2" data-name="레이어_2" xmlns="http://www.w3.org/2000/svg" viewBox="0 0 37.34 44.81">
  <defs>
    <style>
      .cls-1 {
        fill: #fff;
      }

      .cls-2 {
        fill: #e60012;
      }
    </style>
  </defs>
  <g id="_레이어_1-2" data-name="레이어_1">
    <g>
      <path class="cls-2" d="M26.69,38.63c-2.06.94-3.29,1.44-5.32,1.78-1.46.25-2.4.36-4.14.36,3.7,0,6.91-.77,9.46-2.14M18.12,8.04h16.18v-2.85l-3.02-5.18L4.94,1.14,1.69,21.23l5.2,3.41h8.56c.43-1.85,2.43-2.9,5.33-2.9.79,0,1.52.1,2.18.29.55,1.5.82,3.38.82,5.66,0,6.9-2,10.23-6.57,10.23-.7,0-1.33-.07-1.91-.2-.41-1.33-.61-3-.61-5.03,0,0-1.71-2.59-3.3-4.79l-10.26.75c0,4.28.16,6.55,3.28,9.63,4.56,4.16,9.6,6.54,16.85,6.54,9.75,0,16.08-5.28,16.08-13.08,0-4.84-1.26-7.04-5.42-12.12-2.13-2.64-7.29-4.69-14.52-4.77l.72-6.81Z"/>
      <path class="cls-1" d="M11.73,20.69c.38-1.66,2.21-2.61,5-2.61,4.53,0,6.74,3.17,6.74,9.7,0,6.88-1.93,9.95-6.25,9.95s-6.25-2.69-6.25-8.98v-.43H.43v.43c0,7.97,6.28,12.73,16.79,12.73s16.79-5.5,16.79-13.7c0-8.8-5.89-13.45-17.03-13.45-1.43,0-2.64.11-3.67.34.37-3.5.74-6.99,1.11-10.49h16.5V.43H4.34l-.04.38-2.13,19.73-.05.47h9.53l.08-.33Z"/>
      <path class="cls-2" d="M17.21,41.9C6.44,41.9,0,36.98,0,28.74v-.86h11.39v.86c0,6.07,1.69,8.55,5.82,8.55s5.82-2.85,5.82-9.52c0-6.33-2-9.28-6.31-9.28-2.58,0-4.25.83-4.59,2.28l-.15.66H1.64L3.96,0h27.37v4.61H14.79l-1,9.53c.93-.16,1.98-.24,3.19-.24,11.42,0,17.46,4.8,17.46,13.88,0,8.45-6.92,14.12-17.21,14.12ZM.86,28.74c0,7.7,6.12,12.3,16.36,12.3s16.36-5.33,16.36-13.27c0-8.52-5.74-13.03-16.6-13.03-1.41,0-2.58.11-3.58.33l-.58.13,1.21-11.46h16.46V.86H4.73l-2.13,19.73h8.71c.43-1.87,2.41-2.94,5.42-2.94,4.82,0,7.16,3.31,7.16,10.13s-2.12,10.37-6.68,10.37-6.68-2.9-6.68-9.41H.86Z"/>
    </g>
  </g>
</svg>