<?xml version="1.0" encoding="UTF-8"?>
<svg id="_레이어_2" data-name="레이어_2" xmlns="http://www.w3.org/2000/svg" viewBox="0 0 7.6 7.46">
  <defs>
    <style>
      .cls-1 {
        fill: #ec739e;
      }
    </style>
  </defs>
  <g id="_레이어_1-2" data-name="레이어_1">
    <path class="cls-1" d="M7.6,2.03c0-1.12-.91-2.03-2.03-2.03-.78,0-1.43.45-1.77,1.1-.34-.65-1-1.1-1.77-1.1C.91,0,0,.91,0,2.03c0,.73.41,1.35,1,1.7-.58.36-1,.97-1,1.7,0,1.12.91,2.03,2.03,2.03.78,0,1.43-.45,1.77-1.1.34.64.99,1.1,1.77,1.1,1.12,0,2.03-.91,2.03-2.03,0-.73-.41-1.35-1-1.7.58-.35,1-.97,1-1.7"/>
  </g>
</svg>