<?xml version="1.0" encoding="UTF-8"?>
<svg id="_레이어_2" data-name="레이어_2" xmlns="http://www.w3.org/2000/svg" viewBox="0 0 479.46 158.36">
  <defs>
    <style>
      .cls-1 {
        fill: #d6001c;
      }
    </style>
  </defs>
  <g id="_레이어_1-2" data-name="레이어_1">
    <path class="cls-1" d="M118.72,0h34.37v150.33H36.2v-53.19h34.37v23.63h48.15V0ZM209.12,61.73h61.54v-16.11h-61.54v16.11ZM257.07,120.77h49.31v29.56h-132.99v-29.56h49.31v-28.63h-47.95V0h34.36v17.05h61.54V0h34.37v92.14h-47.96v28.63ZM408.16,124c8.5,0,15.43-6.92,15.43-15.43s-6.92-15.43-15.43-15.43-15.43,6.92-15.43,15.43,6.92,15.43,15.43,15.43M479.46,0v29.56h-21.51v79.01c0,27.45-22.34,49.79-49.79,49.79s-49.8-22.34-49.8-49.79c0-5.79,1-11.31,2.83-16.43h-35.43V0h81.12v29.56h-46.76v31.34h63.46V0h55.87ZM79.64,92.79l26.92-16.92-29.43-46.3h26.68V0H2.74v29.56h26.68L0,75.87l26.92,17.75,26.36-39.11,26.35,38.28Z"/>
  </g>
</svg>